<mxfile host="Electron" modified="2023-10-19T09:05:11.678Z" agent="Mozilla/5.0 (Windows NT 10.0; Win64; x64) AppleWebKit/537.36 (KHTML, like Gecko) draw.io/22.0.2 Chrome/114.0.5735.289 Electron/25.8.4 Safari/537.36" etag="M5uv2vJyqa3y957CTk2B" version="22.0.2" type="device">
  <diagram name="Página-1" id="OgZTKG7GqCNFJN0Wz2EZ">
    <mxGraphModel dx="1434" dy="836" grid="1" gridSize="10" guides="1" tooltips="1" connect="1" arrows="1" fold="1" page="1" pageScale="1" pageWidth="827" pageHeight="1169" math="0" shadow="0">
      <root>
        <mxCell id="0" />
        <mxCell id="1" parent="0" />
        <mxCell id="UV5gHILJuA1WS7DyUU7J-10" style="edgeStyle=orthogonalEdgeStyle;rounded=0;orthogonalLoop=1;jettySize=auto;html=1;exitX=0.5;exitY=1;exitDx=0;exitDy=0;" edge="1" parent="1" source="UV5gHILJuA1WS7DyUU7J-17" target="UV5gHILJuA1WS7DyUU7J-5">
          <mxGeometry relative="1" as="geometry" />
        </mxCell>
        <mxCell id="UV5gHILJuA1WS7DyUU7J-16" style="edgeStyle=orthogonalEdgeStyle;rounded=0;orthogonalLoop=1;jettySize=auto;html=1;" edge="1" parent="1" source="UV5gHILJuA1WS7DyUU7J-1">
          <mxGeometry relative="1" as="geometry">
            <mxPoint x="400" y="170" as="targetPoint" />
          </mxGeometry>
        </mxCell>
        <mxCell id="UV5gHILJuA1WS7DyUU7J-30" style="edgeStyle=orthogonalEdgeStyle;rounded=0;orthogonalLoop=1;jettySize=auto;html=1;exitX=0.25;exitY=1;exitDx=0;exitDy=0;entryX=0.5;entryY=0;entryDx=0;entryDy=0;" edge="1" parent="1" source="UV5gHILJuA1WS7DyUU7J-1" target="UV5gHILJuA1WS7DyUU7J-29">
          <mxGeometry relative="1" as="geometry" />
        </mxCell>
        <mxCell id="UV5gHILJuA1WS7DyUU7J-1" value="ARTÍCULO" style="rounded=0;whiteSpace=wrap;html=1;" vertex="1" parent="1">
          <mxGeometry x="280" y="80" width="240" height="80" as="geometry" />
        </mxCell>
        <mxCell id="UV5gHILJuA1WS7DyUU7J-23" style="edgeStyle=orthogonalEdgeStyle;rounded=0;orthogonalLoop=1;jettySize=auto;html=1;exitX=1;exitY=0.5;exitDx=0;exitDy=0;entryX=1;entryY=0.5;entryDx=0;entryDy=0;" edge="1" parent="1" source="UV5gHILJuA1WS7DyUU7J-5" target="UV5gHILJuA1WS7DyUU7J-22">
          <mxGeometry relative="1" as="geometry" />
        </mxCell>
        <mxCell id="UV5gHILJuA1WS7DyUU7J-5" value="CATEGORÍA" style="rounded=0;whiteSpace=wrap;html=1;" vertex="1" parent="1">
          <mxGeometry x="610" y="340" width="120" height="60" as="geometry" />
        </mxCell>
        <mxCell id="UV5gHILJuA1WS7DyUU7J-18" value="" style="edgeStyle=orthogonalEdgeStyle;rounded=0;orthogonalLoop=1;jettySize=auto;html=1;exitX=0.5;exitY=1;exitDx=0;exitDy=0;" edge="1" parent="1" source="UV5gHILJuA1WS7DyUU7J-1" target="UV5gHILJuA1WS7DyUU7J-17">
          <mxGeometry relative="1" as="geometry">
            <mxPoint x="400" y="160" as="sourcePoint" />
            <mxPoint x="594" y="500" as="targetPoint" />
          </mxGeometry>
        </mxCell>
        <mxCell id="UV5gHILJuA1WS7DyUU7J-17" value="Pertenece" style="rhombus;whiteSpace=wrap;html=1;" vertex="1" parent="1">
          <mxGeometry x="360" y="220" width="80" height="80" as="geometry" />
        </mxCell>
        <mxCell id="UV5gHILJuA1WS7DyUU7J-19" value="(1,n)" style="text;html=1;align=center;verticalAlign=middle;resizable=0;points=[];autosize=1;strokeColor=none;fillColor=none;" vertex="1" parent="1">
          <mxGeometry x="395" y="178" width="50" height="30" as="geometry" />
        </mxCell>
        <mxCell id="UV5gHILJuA1WS7DyUU7J-20" value="1,N" style="text;html=1;align=center;verticalAlign=middle;resizable=0;points=[];autosize=1;strokeColor=none;fillColor=none;" vertex="1" parent="1">
          <mxGeometry x="440" y="248" width="40" height="30" as="geometry" />
        </mxCell>
        <mxCell id="UV5gHILJuA1WS7DyUU7J-21" value="(1,1)" style="text;html=1;align=center;verticalAlign=middle;resizable=0;points=[];autosize=1;strokeColor=none;fillColor=none;" vertex="1" parent="1">
          <mxGeometry x="665" y="308" width="50" height="30" as="geometry" />
        </mxCell>
        <mxCell id="UV5gHILJuA1WS7DyUU7J-24" style="edgeStyle=orthogonalEdgeStyle;rounded=0;orthogonalLoop=1;jettySize=auto;html=1;exitX=0;exitY=0.5;exitDx=0;exitDy=0;entryX=0;entryY=0.5;entryDx=0;entryDy=0;" edge="1" parent="1" source="UV5gHILJuA1WS7DyUU7J-22" target="UV5gHILJuA1WS7DyUU7J-5">
          <mxGeometry relative="1" as="geometry" />
        </mxCell>
        <mxCell id="UV5gHILJuA1WS7DyUU7J-22" value="Pertenece" style="rhombus;whiteSpace=wrap;html=1;" vertex="1" parent="1">
          <mxGeometry x="635" y="450" width="80" height="80" as="geometry" />
        </mxCell>
        <mxCell id="UV5gHILJuA1WS7DyUU7J-25" value="1,1)" style="text;html=1;align=center;verticalAlign=middle;resizable=0;points=[];autosize=1;strokeColor=none;fillColor=none;" vertex="1" parent="1">
          <mxGeometry x="720" y="348" width="40" height="30" as="geometry" />
        </mxCell>
        <mxCell id="UV5gHILJuA1WS7DyUU7J-28" value="1:N" style="text;html=1;align=center;verticalAlign=middle;resizable=0;points=[];autosize=1;strokeColor=none;fillColor=none;" vertex="1" parent="1">
          <mxGeometry x="650" y="528" width="40" height="30" as="geometry" />
        </mxCell>
        <mxCell id="UV5gHILJuA1WS7DyUU7J-32" style="edgeStyle=orthogonalEdgeStyle;rounded=0;orthogonalLoop=1;jettySize=auto;html=1;exitX=0.5;exitY=1;exitDx=0;exitDy=0;entryX=0.5;entryY=0;entryDx=0;entryDy=0;" edge="1" parent="1" source="UV5gHILJuA1WS7DyUU7J-29" target="UV5gHILJuA1WS7DyUU7J-31">
          <mxGeometry relative="1" as="geometry" />
        </mxCell>
        <mxCell id="UV5gHILJuA1WS7DyUU7J-29" value="Tiene" style="rhombus;whiteSpace=wrap;html=1;" vertex="1" parent="1">
          <mxGeometry x="180" y="320" width="90" height="80" as="geometry" />
        </mxCell>
        <mxCell id="UV5gHILJuA1WS7DyUU7J-48" style="edgeStyle=orthogonalEdgeStyle;rounded=0;orthogonalLoop=1;jettySize=auto;html=1;exitX=0.75;exitY=1;exitDx=0;exitDy=0;entryX=0;entryY=0.5;entryDx=0;entryDy=0;" edge="1" parent="1" source="UV5gHILJuA1WS7DyUU7J-31" target="UV5gHILJuA1WS7DyUU7J-47">
          <mxGeometry relative="1" as="geometry" />
        </mxCell>
        <mxCell id="UV5gHILJuA1WS7DyUU7J-31" value="Unidad Medida" style="rounded=0;whiteSpace=wrap;html=1;" vertex="1" parent="1">
          <mxGeometry x="165" y="470" width="120" height="60" as="geometry" />
        </mxCell>
        <mxCell id="UV5gHILJuA1WS7DyUU7J-33" value="(1,1)" style="text;html=1;align=center;verticalAlign=middle;resizable=0;points=[];autosize=1;strokeColor=none;fillColor=none;" vertex="1" parent="1">
          <mxGeometry x="225" y="448" width="50" height="30" as="geometry" />
        </mxCell>
        <mxCell id="UV5gHILJuA1WS7DyUU7J-34" value="1:N" style="text;html=1;align=center;verticalAlign=middle;resizable=0;points=[];autosize=1;strokeColor=none;fillColor=none;" vertex="1" parent="1">
          <mxGeometry x="270" y="348" width="40" height="30" as="geometry" />
        </mxCell>
        <mxCell id="UV5gHILJuA1WS7DyUU7J-35" value="(1,n)" style="text;html=1;align=center;verticalAlign=middle;resizable=0;points=[];autosize=1;strokeColor=none;fillColor=none;" vertex="1" parent="1">
          <mxGeometry x="300" y="158" width="50" height="30" as="geometry" />
        </mxCell>
        <mxCell id="UV5gHILJuA1WS7DyUU7J-38" style="edgeStyle=orthogonalEdgeStyle;rounded=0;orthogonalLoop=1;jettySize=auto;html=1;exitX=1;exitY=0.5;exitDx=0;exitDy=0;entryX=0;entryY=0.5;entryDx=0;entryDy=0;" edge="1" parent="1" source="UV5gHILJuA1WS7DyUU7J-36" target="UV5gHILJuA1WS7DyUU7J-1">
          <mxGeometry relative="1" as="geometry" />
        </mxCell>
        <mxCell id="UV5gHILJuA1WS7DyUU7J-39" style="edgeStyle=orthogonalEdgeStyle;rounded=0;orthogonalLoop=1;jettySize=auto;html=1;exitX=0;exitY=0.5;exitDx=0;exitDy=0;entryX=0.5;entryY=0;entryDx=0;entryDy=0;" edge="1" parent="1" source="UV5gHILJuA1WS7DyUU7J-36" target="UV5gHILJuA1WS7DyUU7J-37">
          <mxGeometry relative="1" as="geometry" />
        </mxCell>
        <mxCell id="UV5gHILJuA1WS7DyUU7J-36" value="Suministra" style="rhombus;whiteSpace=wrap;html=1;" vertex="1" parent="1">
          <mxGeometry x="130" y="90" width="110" height="80" as="geometry" />
        </mxCell>
        <mxCell id="UV5gHILJuA1WS7DyUU7J-44" style="edgeStyle=orthogonalEdgeStyle;rounded=0;orthogonalLoop=1;jettySize=auto;html=1;exitX=0.5;exitY=1;exitDx=0;exitDy=0;entryX=0.5;entryY=0;entryDx=0;entryDy=0;" edge="1" parent="1" source="UV5gHILJuA1WS7DyUU7J-37" target="UV5gHILJuA1WS7DyUU7J-43">
          <mxGeometry relative="1" as="geometry" />
        </mxCell>
        <mxCell id="UV5gHILJuA1WS7DyUU7J-37" value="Proveedor" style="rounded=0;whiteSpace=wrap;html=1;" vertex="1" parent="1">
          <mxGeometry x="10" y="200" width="120" height="60" as="geometry" />
        </mxCell>
        <mxCell id="UV5gHILJuA1WS7DyUU7J-40" value="(1,n)" style="text;html=1;align=center;verticalAlign=middle;resizable=0;points=[];autosize=1;strokeColor=none;fillColor=none;" vertex="1" parent="1">
          <mxGeometry x="235" y="88" width="50" height="30" as="geometry" />
        </mxCell>
        <mxCell id="UV5gHILJuA1WS7DyUU7J-41" value="N,M" style="text;html=1;align=center;verticalAlign=middle;resizable=0;points=[];autosize=1;strokeColor=none;fillColor=none;" vertex="1" parent="1">
          <mxGeometry x="165" y="170" width="50" height="30" as="geometry" />
        </mxCell>
        <mxCell id="UV5gHILJuA1WS7DyUU7J-42" value="(1,n)" style="text;html=1;align=center;verticalAlign=middle;resizable=0;points=[];autosize=1;strokeColor=none;fillColor=none;" vertex="1" parent="1">
          <mxGeometry x="65" y="178" width="50" height="30" as="geometry" />
        </mxCell>
        <mxCell id="UV5gHILJuA1WS7DyUU7J-43" value="Id. Proveedor" style="ellipse;whiteSpace=wrap;html=1;" vertex="1" parent="1">
          <mxGeometry x="25" y="278" width="90" height="48" as="geometry" />
        </mxCell>
        <mxCell id="UV5gHILJuA1WS7DyUU7J-45" value="1:N" style="text;html=1;align=center;verticalAlign=middle;resizable=0;points=[];autosize=1;strokeColor=none;fillColor=none;" vertex="1" parent="1">
          <mxGeometry x="720" y="488" width="40" height="30" as="geometry" />
        </mxCell>
        <mxCell id="UV5gHILJuA1WS7DyUU7J-46" value="(1,n)" style="text;html=1;align=center;verticalAlign=middle;resizable=0;points=[];autosize=1;strokeColor=none;fillColor=none;" vertex="1" parent="1">
          <mxGeometry x="565" y="338" width="50" height="30" as="geometry" />
        </mxCell>
        <mxCell id="UV5gHILJuA1WS7DyUU7J-47" value="Id. Unidad" style="ellipse;whiteSpace=wrap;html=1;" vertex="1" parent="1">
          <mxGeometry x="270" y="550" width="110" height="55" as="geometry" />
        </mxCell>
      </root>
    </mxGraphModel>
  </diagram>
</mxfile>
